<svg width="491" height="338" viewBox="0 0 491 338" fill="none" xmlns="http://www.w3.org/2000/svg">
<path d="M85.8 98.5C96.9 98.5 105.9 107.5 105.9 118.6C105.9 129.7 96.9 138.7 85.8 138.7C74.7 138.7 65.7 129.7 65.7 118.6C65.7 107.5 74.7 98.5 85.8 98.5ZM33.2 237.2H272.4C271.6 234.8 271.2 232.2 271.2 229.5V208.9H67.3C67.7 206.9 67.9 204.8 67.9 202.7C67.9 184.1 52.9 169.1 34.3 169.1C32.3 169.1 30.3 169.3 28.4 169.6V67.6C30.3 67.9 32.3 68.1 34.3 68.1C52.9 68.1 67.9 53.1 67.9 34.5C67.9 32.4 67.7 30.3 67.3 28.3H313.8C313.1 30.9 312.8 33.7 312.8 36.5C312.8 55.1 327.8 70.1 346.4 70.1C349.3 70.1 352.1 69.7 354.7 69.1V103.2C357.2 102.4 359.8 101.9 362.6 101.9H383.1V33.2C383.1 14.9 368.2 0 349.9 0H33.2C14.9 0 0 14.9 0 33.2V204C0.1 222.3 14.9 237.2 33.2 237.2ZM354.9 127.2V229.4C354.9 233.7 358.4 237.1 362.6 237.1H396.8C401.1 237.1 404.5 233.6 404.5 229.4V127.2C404.5 122.9 401 119.5 396.8 119.5H362.6C358.3 119.4 354.9 122.9 354.9 127.2ZM296.5 155.1C292.2 155.1 288.8 158.6 288.8 162.8V229.4C288.8 233.7 292.3 237.1 296.5 237.1H330.7C335 237.1 338.4 233.6 338.4 229.4V162.8C338.4 158.5 334.9 155.1 330.7 155.1H296.5V155.1ZM406.5 83.1H421V229.4C421 233.7 424.5 237.1 428.7 237.1H462.9C467.2 237.1 470.6 233.6 470.6 229.4V83.1H485.1C489.7 83.1 492.5 77.9 489.9 74.1L450.6 16.7C448.3 13.4 443.4 13.4 441.1 16.7L401.8 74.1C399.2 77.9 401.9 83.1 406.5 83.1ZM191.6 45.9C231.7 45.9 264.3 78.5 264.3 118.6C264.3 158.7 231.7 191.3 191.6 191.3C151.5 191.3 118.9 158.7 118.9 118.6C118.9 78.5 151.5 45.9 191.6 45.9ZM144.2 92.3H158.5C161.4 82.8 165.7 75 170.1 68.8C159.1 73.6 150 81.9 144.2 92.3ZM155.9 134C155.1 129.2 154.6 124.1 154.6 118.6C154.6 113.1 155.1 108 155.9 103.2H139.6C138.2 108.1 137.4 113.2 137.4 118.6C137.4 123.9 138.2 129.1 139.6 134H155.9ZM170.1 168.4C165.7 162.2 161.4 154.4 158.5 144.9H144.2C150 155.3 159.1 163.6 170.1 168.4ZM186.1 144.9H170C174.3 156.7 180.9 165.2 186.1 170.5V144.9ZM186.1 103.2H167C166.1 107.9 165.6 113 165.6 118.6C165.6 124.1 166.1 129.3 167.1 134H186.2V103.2H186.1ZM186.1 66.7C180.8 72 174.2 80.4 169.9 92.4H186.1V66.7ZM239 144.9H224.7C221.8 154.4 217.5 162.2 213.1 168.4C224 163.6 233.2 155.3 239 144.9ZM227.2 103.2C228 108 228.5 113.1 228.5 118.6C228.5 124.1 228 129.2 227.2 134H243.5C244.9 129.1 245.7 124 245.7 118.6C245.7 113.3 244.9 108.1 243.5 103.2H227.2ZM213 68.8C217.4 75 221.7 82.8 224.6 92.3H238.9C233.2 81.9 224 73.6 213 68.8ZM197 92.3H213.1C208.8 80.5 202.2 72 197 66.7V92.3ZM197 134H216.1C217 129.3 217.5 124.2 217.5 118.6C217.5 113.1 217 107.9 216 103.2H196.9V134H197ZM197 170.5C202.3 165.2 208.9 156.8 213.2 144.8H197V170.5Z" fill="#A6DFA5"/>
<path d="M38.3008 276.934C36.2148 276.934 34.3633 277.344 32.7461 278.164C31.1523 278.961 29.8047 280.121 28.7031 281.645C27.625 283.168 26.8047 285.008 26.2422 287.164C25.6797 289.32 25.3984 291.746 25.3984 294.441C25.3984 298.074 25.8438 301.18 26.7344 303.758C27.6484 306.312 29.0547 308.27 30.9531 309.629C32.8516 310.965 35.3008 311.633 38.3008 311.633C40.3867 311.633 42.4727 311.398 44.5586 310.93C46.668 310.461 48.9531 309.793 51.4141 308.926V318.066C49.1406 319.004 46.9023 319.672 44.6992 320.07C42.4961 320.492 40.0234 320.703 37.2812 320.703C31.9844 320.703 27.625 319.613 24.2031 317.434C20.8047 315.23 18.2852 312.16 16.6445 308.223C15.0039 304.262 14.1836 299.645 14.1836 294.371C14.1836 290.48 14.7109 286.918 15.7656 283.684C16.8203 280.449 18.3672 277.648 20.4062 275.281C22.4453 272.914 24.9648 271.086 27.9648 269.797C30.9648 268.508 34.4102 267.863 38.3008 267.863C40.8555 267.863 43.4102 268.191 45.9648 268.848C48.543 269.48 51.0039 270.359 53.3477 271.484L49.832 280.344C47.9102 279.43 45.9766 278.633 44.0312 277.953C42.0859 277.273 40.1758 276.934 38.3008 276.934ZM77.6406 279.887C82.9141 279.887 86.957 281.035 89.7695 283.332C92.582 285.629 93.9883 289.121 93.9883 293.809V320H86.5L84.4258 314.656H84.1445C83.0195 316.062 81.8711 317.211 80.6992 318.102C79.5273 318.992 78.1797 319.648 76.6562 320.07C75.1328 320.492 73.2812 320.703 71.1016 320.703C68.7812 320.703 66.6953 320.258 64.8438 319.367C63.0156 318.477 61.5742 317.117 60.5195 315.289C59.4648 313.438 58.9375 311.094 58.9375 308.258C58.9375 304.086 60.4023 301.016 63.332 299.047C66.2617 297.055 70.6562 295.953 76.5156 295.742L83.3359 295.531V293.809C83.3359 291.746 82.7969 290.234 81.7188 289.273C80.6406 288.312 79.1406 287.832 77.2188 287.832C75.3203 287.832 73.457 288.102 71.6289 288.641C69.8008 289.18 67.9727 289.859 66.1445 290.68L62.5938 283.438C64.6797 282.336 67.0117 281.469 69.5898 280.836C72.1914 280.203 74.875 279.887 77.6406 279.887ZM83.3359 301.789L79.1875 301.93C75.7188 302.023 73.3047 302.645 71.9453 303.793C70.6094 304.941 69.9414 306.453 69.9414 308.328C69.9414 309.969 70.4219 311.141 71.3828 311.844C72.3438 312.523 73.5977 312.863 75.1445 312.863C77.4414 312.863 79.375 312.184 80.9453 310.824C82.5391 309.465 83.3359 307.531 83.3359 305.023V301.789ZM126.93 279.957C131.359 279.957 134.934 281.68 137.652 285.125C140.395 288.57 141.766 293.621 141.766 300.277C141.766 304.73 141.121 308.48 139.832 311.527C138.543 314.551 136.762 316.836 134.488 318.383C132.215 319.93 129.602 320.703 126.648 320.703C124.75 320.703 123.121 320.469 121.762 320C120.402 319.508 119.242 318.887 118.281 318.137C117.32 317.363 116.488 316.543 115.785 315.676H115.223C115.41 316.613 115.551 317.574 115.645 318.559C115.738 319.543 115.785 320.504 115.785 321.441V337.297H105.062V280.695H113.781L115.293 285.793H115.785C116.488 284.738 117.344 283.766 118.352 282.875C119.359 281.984 120.566 281.281 121.973 280.766C123.402 280.227 125.055 279.957 126.93 279.957ZM123.484 288.535C121.609 288.535 120.121 288.922 119.02 289.695C117.918 290.469 117.109 291.629 116.594 293.176C116.102 294.723 115.832 296.68 115.785 299.047V300.207C115.785 302.738 116.02 304.883 116.488 306.641C116.98 308.398 117.789 309.734 118.914 310.648C120.062 311.562 121.633 312.02 123.625 312.02C125.266 312.02 126.613 311.562 127.668 310.648C128.723 309.734 129.508 308.398 130.023 306.641C130.562 304.859 130.832 302.691 130.832 300.137C130.832 296.293 130.234 293.398 129.039 291.453C127.844 289.508 125.992 288.535 123.484 288.535ZM161.348 280.695V320H150.625V280.695H161.348ZM156.004 265.297C157.598 265.297 158.969 265.672 160.117 266.422C161.266 267.148 161.84 268.52 161.84 270.535C161.84 272.527 161.266 273.91 160.117 274.684C158.969 275.434 157.598 275.809 156.004 275.809C154.387 275.809 153.004 275.434 151.855 274.684C150.73 273.91 150.168 272.527 150.168 270.535C150.168 268.52 150.73 267.148 151.855 266.422C153.004 265.672 154.387 265.297 156.004 265.297ZM189.191 312.16C190.363 312.16 191.5 312.043 192.602 311.809C193.727 311.574 194.84 311.281 195.941 310.93V318.91C194.793 319.426 193.363 319.848 191.652 320.176C189.965 320.527 188.113 320.703 186.098 320.703C183.754 320.703 181.645 320.328 179.77 319.578C177.918 318.805 176.453 317.48 175.375 315.605C174.32 313.707 173.793 311.07 173.793 307.695V288.746H168.66V284.211L174.566 280.625L177.66 272.328H184.516V280.695H195.52V288.746H184.516V307.695C184.516 309.195 184.938 310.32 185.781 311.07C186.648 311.797 187.785 312.16 189.191 312.16ZM220.023 279.887C225.297 279.887 229.34 281.035 232.152 283.332C234.965 285.629 236.371 289.121 236.371 293.809V320H228.883L226.809 314.656H226.527C225.402 316.062 224.254 317.211 223.082 318.102C221.91 318.992 220.562 319.648 219.039 320.07C217.516 320.492 215.664 320.703 213.484 320.703C211.164 320.703 209.078 320.258 207.227 319.367C205.398 318.477 203.957 317.117 202.902 315.289C201.848 313.438 201.32 311.094 201.32 308.258C201.32 304.086 202.785 301.016 205.715 299.047C208.645 297.055 213.039 295.953 218.898 295.742L225.719 295.531V293.809C225.719 291.746 225.18 290.234 224.102 289.273C223.023 288.312 221.523 287.832 219.602 287.832C217.703 287.832 215.84 288.102 214.012 288.641C212.184 289.18 210.355 289.859 208.527 290.68L204.977 283.438C207.062 282.336 209.395 281.469 211.973 280.836C214.574 280.203 217.258 279.887 220.023 279.887ZM225.719 301.789L221.57 301.93C218.102 302.023 215.688 302.645 214.328 303.793C212.992 304.941 212.324 306.453 212.324 308.328C212.324 309.969 212.805 311.141 213.766 311.844C214.727 312.523 215.98 312.863 217.527 312.863C219.824 312.863 221.758 312.184 223.328 310.824C224.922 309.465 225.719 307.531 225.719 305.023V301.789ZM258.168 320H247.445V265.297H258.168V320ZM310.832 276.934C308.746 276.934 306.895 277.344 305.277 278.164C303.684 278.961 302.336 280.121 301.234 281.645C300.156 283.168 299.336 285.008 298.773 287.164C298.211 289.32 297.93 291.746 297.93 294.441C297.93 298.074 298.375 301.18 299.266 303.758C300.18 306.312 301.586 308.27 303.484 309.629C305.383 310.965 307.832 311.633 310.832 311.633C312.918 311.633 315.004 311.398 317.09 310.93C319.199 310.461 321.484 309.793 323.945 308.926V318.066C321.672 319.004 319.434 319.672 317.23 320.07C315.027 320.492 312.555 320.703 309.812 320.703C304.516 320.703 300.156 319.613 296.734 317.434C293.336 315.23 290.816 312.16 289.176 308.223C287.535 304.262 286.715 299.645 286.715 294.371C286.715 290.48 287.242 286.918 288.297 283.684C289.352 280.449 290.898 277.648 292.938 275.281C294.977 272.914 297.496 271.086 300.496 269.797C303.496 268.508 306.941 267.863 310.832 267.863C313.387 267.863 315.941 268.191 318.496 268.848C321.074 269.48 323.535 270.359 325.879 271.484L322.363 280.344C320.441 279.43 318.508 278.633 316.562 277.953C314.617 277.273 312.707 276.934 310.832 276.934ZM350.172 279.887C355.445 279.887 359.488 281.035 362.301 283.332C365.113 285.629 366.52 289.121 366.52 293.809V320H359.031L356.957 314.656H356.676C355.551 316.062 354.402 317.211 353.23 318.102C352.059 318.992 350.711 319.648 349.188 320.07C347.664 320.492 345.812 320.703 343.633 320.703C341.312 320.703 339.227 320.258 337.375 319.367C335.547 318.477 334.105 317.117 333.051 315.289C331.996 313.438 331.469 311.094 331.469 308.258C331.469 304.086 332.934 301.016 335.863 299.047C338.793 297.055 343.188 295.953 349.047 295.742L355.867 295.531V293.809C355.867 291.746 355.328 290.234 354.25 289.273C353.172 288.312 351.672 287.832 349.75 287.832C347.852 287.832 345.988 288.102 344.16 288.641C342.332 289.18 340.504 289.859 338.676 290.68L335.125 283.438C337.211 282.336 339.543 281.469 342.121 280.836C344.723 280.203 347.406 279.887 350.172 279.887ZM355.867 301.789L351.719 301.93C348.25 302.023 345.836 302.645 344.477 303.793C343.141 304.941 342.473 306.453 342.473 308.328C342.473 309.969 342.953 311.141 343.914 311.844C344.875 312.523 346.129 312.863 347.676 312.863C349.973 312.863 351.906 312.184 353.477 310.824C355.07 309.465 355.867 307.531 355.867 305.023V301.789ZM405.016 308.328C405.016 311 404.383 313.262 403.117 315.113C401.875 316.941 400.012 318.336 397.527 319.297C395.043 320.234 391.949 320.703 388.246 320.703C385.504 320.703 383.148 320.527 381.18 320.176C379.234 319.824 377.266 319.238 375.273 318.418V309.559C377.406 310.52 379.691 311.316 382.129 311.949C384.59 312.559 386.746 312.863 388.598 312.863C390.684 312.863 392.172 312.559 393.062 311.949C393.977 311.316 394.434 310.496 394.434 309.488C394.434 308.832 394.246 308.246 393.871 307.73C393.52 307.191 392.746 306.594 391.551 305.938C390.355 305.258 388.48 304.379 385.926 303.301C383.465 302.27 381.438 301.227 379.844 300.172C378.273 299.117 377.102 297.875 376.328 296.445C375.578 294.992 375.203 293.152 375.203 290.926C375.203 287.293 376.609 284.562 379.422 282.734C382.258 280.883 386.043 279.957 390.777 279.957C393.215 279.957 395.535 280.203 397.738 280.695C399.965 281.188 402.25 281.973 404.594 283.051L401.359 290.785C399.414 289.941 397.574 289.25 395.84 288.711C394.129 288.172 392.383 287.902 390.602 287.902C389.031 287.902 387.848 288.113 387.051 288.535C386.254 288.957 385.855 289.602 385.855 290.469C385.855 291.102 386.055 291.664 386.453 292.156C386.875 292.648 387.672 293.199 388.844 293.809C390.039 294.395 391.785 295.156 394.082 296.094C396.309 297.008 398.242 297.969 399.883 298.977C401.523 299.961 402.789 301.191 403.68 302.668C404.57 304.121 405.016 306.008 405.016 308.328ZM424.105 265.297V276.441C424.105 278.387 424.035 280.238 423.895 281.996C423.777 283.754 423.684 284.996 423.613 285.723H424.176C425.02 284.363 426.016 283.262 427.164 282.418C428.336 281.574 429.625 280.953 431.031 280.555C432.438 280.156 433.949 279.957 435.566 279.957C438.402 279.957 440.875 280.461 442.984 281.469C445.094 282.453 446.734 284.012 447.906 286.145C449.078 288.254 449.664 290.996 449.664 294.371V320H438.941V297.043C438.941 294.23 438.426 292.109 437.395 290.68C436.363 289.25 434.77 288.535 432.613 288.535C430.457 288.535 428.758 289.039 427.516 290.047C426.273 291.031 425.395 292.496 424.879 294.441C424.363 296.363 424.105 298.719 424.105 301.508V320H413.383V265.297H424.105Z" fill="#A6DFA5"/>
</svg>
